<svg width="44" height="44" viewBox="0 0 44 44" fill="none" xmlns="http://www.w3.org/2000/svg">
<path fill-rule="evenodd" clip-rule="evenodd" d="M28 18.0242H16C15.7239 18.0242 15.5 18.2399 15.5 18.5061V30.0723C15.5 30.3385 15.7239 30.5543 16 30.5543H28C28.2761 30.5543 28.5 30.3385 28.5 30.0723V18.5061C28.5 18.2399 28.2761 18.0242 28 18.0242ZM16 16.5784C14 16.5784 14 16.5784 14 18.5061V30.0723C14 31.137 14.8954 32.0001 16 32.0001H28C29.1046 32.0001 30 31.137 30 30.0723V18.5061C30 16.5784 30 16.5784 28 16.5784H23V12H21V16.5784H16Z" fill="#666666"/>
</svg>
