<svg width="52" height="26" viewBox="0 0 52 26" fill="none" xmlns="http://www.w3.org/2000/svg">
<path d="M34.7162 17.1487H39.7429V21.1472H35.3567C34.6198 21.1324 34.1233 20.5525 33.8418 20.1262" stroke="#666666" stroke-miterlimit="10" stroke-linecap="round"/>
<path d="M33.8419 20.1264C33.5604 19.6998 31.9177 16.6942 31.5804 16.1819C31.2427 15.6704 31.3479 14.9399 31.5311 14.6231L32.8077 12.4581L32.1744 12.0923L35.5667 11.6765L36.9037 14.8226L36.2705 14.4568L33.9625 18.4546C33.6886 18.9294 33.5208 19.6772 33.8419 20.1264Z" stroke="#666666" stroke-miterlimit="10" stroke-linecap="round"/>
<path d="M45.3197 17.1502L42.8062 12.7963L46.269 10.7969L48.4628 14.5967C48.8182 15.2422 48.5647 15.9622 48.3358 16.419" stroke="#666666" stroke-miterlimit="10" stroke-linecap="round"/>
<path d="M48.3357 16.4189C48.1067 16.8761 46.3251 19.8008 46.0504 20.3491C45.7764 20.8973 45.091 21.1717 44.7252 21.1717L42.2121 21.149L42.2117 21.8801L40.155 19.1495L42.2121 16.4189V17.1501H46.8273C47.3759 17.1501 48.1071 16.9215 48.3357 16.4189Z" stroke="#666666" stroke-miterlimit="10" stroke-linecap="round"/>
<path d="M42.4248 5.73402C43.0364 5.6973 43.6167 6.15414 43.7996 6.47058L45.0366 8.65866L45.6694 8.29326L44.3335 11.4393L40.9405 11.0239L41.5737 10.6581L40.0232 7.97214" stroke="#666666" stroke-miterlimit="10" stroke-linecap="round"/>
<path d="M37.8787 5.71997C37.3682 5.75021 36.6179 5.89061 36.2363 6.52097L34.0432 10.3204L37.5061 12.3202L40.7263 6.74021C41.0229 6.22541 41.6875 5.73077 42.4247 5.73401C41.6659 5.75201 39.8864 5.72681 37.8787 5.71997Z" stroke="#666666" stroke-miterlimit="10" stroke-linecap="round"/>
<path fill-rule="evenodd" clip-rule="evenodd" d="M18 8.02415H6C5.72386 8.02415 5.5 8.23992 5.5 8.50608V20.0723C5.5 20.3385 5.72386 20.5543 6 20.5543H18C18.2761 20.5543 18.5 20.3385 18.5 20.0723V8.50608C18.5 8.23992 18.2761 8.02415 18 8.02415ZM6 6.57837C4 6.57837 4 6.57837 4 8.50608V20.0723C4 21.137 4.89543 22.0001 6 22.0001H18C19.1046 22.0001 20 21.137 20 20.0723V8.50608C20 6.57837 20 6.57837 18 6.57837H13V2H11V6.57837H6Z" fill="#666666"/>
</svg>
